<svg width="187" height="121" viewBox="0 0 187 121" fill="none" xmlns="http://www.w3.org/2000/svg">
<path d="M131.203 53.0685C141.188 53.0685 149.282 44.9742 149.282 34.9893C149.282 25.0045 141.188 16.9102 131.203 16.9102C121.218 16.9102 113.124 25.0045 113.124 34.9893C113.124 44.9742 121.218 53.0685 131.203 53.0685Z" fill="#F0EFFF"/>
<path d="M161.088 115.229C164.918 112.299 168.296 108.877 170.814 104.767C175.93 96.4178 176.529 84.657 169.962 77.3937C162.668 69.326 150.139 69.5435 139.316 70.6178C128.493 71.6921 116.17 72.5339 108.205 65.1275C101.711 59.0887 100.326 49.4588 99.661 40.6158C98.9962 31.7728 98.4322 22.2641 92.916 15.3206C85.4913 5.97424 70.5506 4.84598 60.4937 11.2754C50.4367 17.705 45.1889 30.0365 45.07 41.9722C45.0193 47.0798 45.3277 53.2216 41.1093 56.1018C37.747 58.3976 33.1285 57.2697 29.5161 55.3918C25.9034 53.5142 22.4971 50.9251 18.4621 50.3812C13.0907 49.6573 7.73887 52.9149 4.75749 57.4411C1.77582 61.9672 0.816328 67.54 0.651943 72.9571C0.185019 88.3329 6.0408 103.68 16.1575 115.229H161.088V115.229Z" fill="#F0EFFF"/>
<path d="M1.78027 115.045H171.579" stroke="#D3C6FC" stroke-width="0.305482" stroke-miterlimit="10"/>
<path d="M131.246 113.26H81.5004C79.6639 113.26 78.1748 114.749 78.1748 116.585H131.246V113.26H131.246Z" fill="#8F9AF8"/>
<path d="M147.377 90.9629H112.944C111.989 90.9629 111.125 91.533 110.75 92.4118L101.254 114.66C100.865 115.572 101.534 116.586 102.526 116.586H138.093C139.049 116.586 139.912 116.016 140.287 115.137L149.338 93.9323C149.938 92.5254 148.906 90.9629 147.377 90.9629Z" fill="#B8C3FF"/>
<path d="M129.548 104.263C129.023 106.399 126.866 108.131 124.73 108.131C122.593 108.131 121.287 106.399 121.811 104.263C122.336 102.126 124.493 100.395 126.629 100.395C128.766 100.395 130.072 102.126 129.548 104.263Z" fill="white"/>
<path d="M78.0811 118.281H138.511" stroke="#D3C6FC" stroke-width="0.305482" stroke-miterlimit="10"/>
<path d="M103.888 120.004H135.93" stroke="#D3C6FC" stroke-width="0.305482" stroke-miterlimit="10"/>
<path d="M160.714 36.9199H81.8634C78.3002 36.9199 75.4121 39.8083 75.4121 43.3712V76.9186C75.4121 80.4814 78.3005 83.3701 81.8634 83.3701H112.196L117.629 88.803L123.062 83.3701H160.714C164.277 83.3701 167.165 80.4817 167.165 76.9186V43.3712C167.165 39.8083 164.277 36.9199 160.714 36.9199Z" fill="white" stroke="#BBABF8" stroke-width="0.305482" stroke-miterlimit="10"/>
<path d="M92.7709 56.6307C96.2005 55.1865 97.8099 51.2355 96.3656 47.8059C94.9214 44.3763 90.9704 42.7669 87.5408 44.2111C84.1113 45.6554 82.5018 49.6064 83.9461 53.036C85.3903 56.4655 89.3413 58.0749 92.7709 56.6307Z" fill="#DAE0FF"/>
<path d="M104.202 44.2969L105.438 48.0054L109.347 47.9754L106.203 50.2975L107.439 54.0061L104.259 51.7327L101.114 54.0548L102.293 50.3278L99.1133 48.0544L103.022 48.0241L104.202 44.2969Z" fill="#FAAF3B"/>
<path d="M116.653 44.2969L117.89 48.0054L121.799 47.9754L118.654 50.2975L119.891 54.0061L116.711 51.7327L113.566 54.0548L114.745 50.3278L111.564 48.0544L115.474 48.0241L116.653 44.2969Z" fill="#FAAF3B"/>
<path d="M129.104 44.2969L130.341 48.0054L134.25 47.9754L131.105 50.2975L132.342 54.0061L129.162 51.7327L126.017 54.0548L127.196 50.3278L124.016 48.0544L127.925 48.0241L129.104 44.2969Z" fill="#FAAF3B"/>
<path d="M141.555 44.2969L142.792 48.0054L146.701 47.9754L143.556 50.2975L144.793 54.0061L141.613 51.7327L138.468 54.0548L139.647 50.3278L136.467 48.0544L140.376 48.0241L141.555 44.2969Z" fill="#E8ECFF"/>
<path d="M154.007 44.2969L155.244 48.0054L159.153 47.9754L156.008 50.2975L157.245 54.0061L154.065 51.7327L150.92 54.0548L152.099 50.3278L148.919 48.0544L152.828 48.0241L154.007 44.2969Z" fill="#E8ECFF"/>
<path d="M89.0178 60.168H83.0664V61.7582H89.0178V60.168Z" fill="#BBABF8"/>
<path d="M99.4101 60.168H90.4873V61.7582H99.4101V60.168Z" fill="#BBABF8"/>
<path d="M95.9034 64.8906H83.0674V66.4809H95.9034V64.8906Z" fill="#E6DFFC"/>
<path d="M131.167 64.8906H101.134V66.4809H131.167V64.8906Z" fill="#E6DFFC"/>
<path d="M159.513 64.8906H136.397V66.4809H159.513V64.8906Z" fill="#E6DFFC"/>
<path d="M111.764 69.9512H83.0674V71.5414H111.764V69.9512Z" fill="#E6DFFC"/>
<path d="M159.514 69.9512H145.172V71.5414H159.514V69.9512Z" fill="#E6DFFC"/>
<path d="M141.797 69.9512H116.657V71.5414H141.797V69.9512Z" fill="#E6DFFC"/>
<path d="M119.694 75.0137H83.0674V76.6039H119.694V75.0137Z" fill="#E6DFFC"/>
<path d="M176.562 11.4043H125.095C122.769 11.4043 120.884 13.2895 120.884 15.6154V25.9139C120.884 28.2395 122.769 30.125 125.095 30.125H176.562C178.888 30.125 180.773 28.2395 180.773 25.9139V15.6154C180.773 13.2898 178.888 11.4043 176.562 11.4043Z" fill="white" stroke="#BBABF8" stroke-width="0.305482" stroke-miterlimit="10"/>
<path d="M140.679 17.5801L141.486 20.0007L144.037 19.9809L141.985 21.4968L142.792 23.9174L140.716 22.4335L138.663 23.9491L139.433 21.5163L137.357 20.0324L139.909 20.0129L140.679 17.5801Z" fill="#FAAF3B"/>
<path d="M148.806 17.5801L149.613 20.0007L152.164 19.9809L150.112 21.4968L150.919 23.9174L148.843 22.4335L146.79 23.9491L147.56 21.5163L145.484 20.0324L148.036 20.0129L148.806 17.5801Z" fill="#FAAF3B"/>
<path d="M156.933 17.5801L157.74 20.0007L160.291 19.9809L158.239 21.4968L159.046 23.9174L156.97 22.4335L154.917 23.9491L155.687 21.5163L153.611 20.0324L156.163 20.0129L156.933 17.5801Z" fill="#FAAF3B"/>
<path d="M165.059 17.5801L165.867 20.0007L168.418 19.9809L166.366 21.4968L167.173 23.9174L165.097 22.4335L163.044 23.9491L163.814 21.5163L161.738 20.0324L164.29 20.0129L165.059 17.5801Z" fill="#FAAF3B"/>
<path d="M173.186 17.5801L173.994 20.0007L176.545 19.9809L174.493 21.4968L175.3 23.9174L173.224 22.4335L171.171 23.9491L171.941 21.5163L169.865 20.0324L172.417 20.0129L173.186 17.5801Z" fill="#E8ECFF"/>
<path d="M133.882 20.5318C134.213 18.4844 132.822 16.5565 130.774 16.2257C128.727 15.8949 126.799 17.2865 126.468 19.3339C126.137 21.3813 127.529 23.3092 129.576 23.64C131.624 23.9708 133.552 22.5792 133.882 20.5318Z" fill="#DAE0FF"/>
<path d="M128.974 24.4668H125.657V25.3531H128.974V24.4668Z" fill="#BBABF8"/>
<path d="M134.766 24.4668H129.793V25.3531H134.766V24.4668Z" fill="#BBABF8"/>
<path d="M44.2677 28.5312H8.92842C7.3315 28.5312 6.03711 29.8256 6.03711 31.4226V38.494C6.03711 40.091 7.3315 41.3854 8.92842 41.3854H44.2677C45.8647 41.3854 47.159 40.0907 47.159 38.494V31.4226C47.1593 29.8256 45.8647 28.5312 44.2677 28.5312Z" fill="white" stroke="#BBABF8" stroke-width="0.305482" stroke-miterlimit="10"/>
<path d="M19.6293 32.7715L20.1837 34.4334L21.9357 34.42L20.5262 35.4605L21.0802 37.1227L19.655 36.1038L18.2455 37.1446L18.7742 35.4742L17.3486 34.4553L19.1006 34.4419L19.6293 32.7715Z" fill="#FAAF3B"/>
<path d="M25.2091 32.7715L25.7635 34.4334L27.5155 34.42L26.1059 35.4605L26.6603 37.1227L25.2348 36.1038L23.8252 37.1446L24.354 35.4742L22.9287 34.4553L24.6807 34.4419L25.2091 32.7715Z" fill="#FAAF3B"/>
<path d="M30.7902 32.7715L31.3445 34.4334L33.0965 34.42L31.687 35.4605L32.2414 37.1227L30.8158 36.1038L29.4066 37.1446L29.935 35.4742L28.5098 34.4553L30.2618 34.4419L30.7902 32.7715Z" fill="#FAAF3B"/>
<path d="M36.3693 32.7715L36.9236 34.4334L38.6756 34.42L37.2664 35.4605L37.8205 37.1227L36.3952 36.1038L34.9857 37.1446L35.5141 35.4742L34.0889 34.4553L35.8409 34.4419L36.3693 32.7715Z" fill="#FAAF3B"/>
<path d="M41.9506 32.7715L42.5047 34.4334L44.2567 34.42L42.8474 35.4605L43.4015 37.1227L41.9763 36.1038L40.5668 37.1446L41.0955 35.4742L39.6699 34.4553L41.4219 34.4419L41.9506 32.7715Z" fill="#E8ECFF"/>
<path d="M14.968 34.809C15.1988 33.4037 14.2468 32.0773 12.8414 31.8465C11.4361 31.6156 10.1098 32.5677 9.87892 33.973C9.64808 35.3784 10.6002 36.7047 12.0055 36.9356C13.4108 37.1664 14.7371 36.2143 14.968 34.809Z" fill="#DAE0FF"/>
<path d="M11.5929 37.498H9.31543V38.1066H11.5929V37.498Z" fill="#BBABF8"/>
<path d="M15.5698 37.498H12.1553V38.1066H15.5698V37.498Z" fill="#BBABF8"/>
<path d="M163.715 104.875C168.049 104.875 171.562 101.362 171.562 97.0284C171.562 92.6948 168.049 89.1816 163.715 89.1816C159.381 89.1816 155.868 92.6948 155.868 97.0284C155.868 101.362 159.381 104.875 163.715 104.875Z" fill="#FF7AA9"/>
<path d="M166.068 94.0684C164.764 94.0684 163.715 95.1255 163.715 96.4295C163.715 95.1255 162.665 94.0684 161.361 94.0684C160.057 94.0684 159 95.1255 159 96.4295C159 99.3712 163.715 101.837 163.715 101.837C163.715 101.837 168.429 99.3715 168.429 96.4295C168.429 95.1255 167.372 94.0684 166.068 94.0684Z" fill="white"/>
<path d="M24.4652 66.6929C25.165 62.416 22.2653 58.3815 17.9884 57.6817C13.7116 56.9818 9.6771 59.8815 8.97721 64.1584C8.27733 68.4352 11.1771 72.4697 15.4539 73.1696C19.7308 73.8695 23.7653 70.9698 24.4652 66.6929Z" fill="#FF7AA9"/>
<path d="M19.0732 62.4688C17.7691 62.4688 16.7196 63.5259 16.7196 64.8299C16.7196 63.5259 15.67 62.4688 14.366 62.4688C13.062 62.4688 12.0049 63.5259 12.0049 64.8299C12.0049 67.7716 16.7196 70.2377 16.7196 70.2377C16.7196 70.2377 21.4343 67.7719 21.4343 64.8299C21.4343 63.5259 20.3772 62.4688 19.0732 62.4688Z" fill="white"/>
<path d="M59.532 10.2754L61.4364 16.1364H67.5991L62.6133 19.7587L64.5177 25.6198L59.532 21.9974L54.5462 25.6198L56.4506 19.7587L51.4648 16.1364H57.6275L59.532 10.2754Z" fill="#BBABF8"/>
<path d="M68.937 24.3223L70.3914 28.7983H75.0977L71.2903 31.5648L72.7447 36.0405L68.937 33.2743L65.1296 36.0405L66.584 31.5648L62.7764 28.7983H67.4829L68.937 24.3223Z" fill="#BBABF8"/>
<path d="M62.7884 37.8984L63.634 40.5012H66.3705L64.1566 42.1095L65.0024 44.7123L62.7884 43.1037L60.5745 44.7123L61.42 42.1095L59.2061 40.5012H61.9426L62.7884 37.8984Z" fill="#BBABF8"/>
<path d="M179.205 68.6969C183.165 64.7373 183.165 58.3174 179.205 54.3578C175.245 50.3981 168.826 50.3981 164.866 54.3578C160.906 58.3174 160.906 64.7373 164.866 68.6969C168.826 72.6566 175.245 72.6566 179.205 68.6969Z" fill="#BBABF8"/>
<path d="M166.892 56.5332V60.0436L174.004 61.6787L166.892 63.3138V66.8242L180.058 61.6787L166.892 56.5332Z" fill="white"/>
<path d="M112.022 14.8941C112.025 23.0865 105.364 29.7529 97.2314 29.736C88.9711 29.7188 83.2357 23.401 82.4618 16.7361C81.9494 12.3228 83.1313 8.39708 86.0358 5.06886C88.9644 1.71296 92.7467 -0.00813208 97.2052 2.88872e-05C105.294 0.014602 112.07 6.57019 112.022 14.8941Z" fill="#BBABF8"/>
<path d="M99.2663 20.4484C97.9574 20.4484 96.6484 20.4502 95.3397 20.4475C94.869 20.4464 94.6965 20.2954 94.7003 19.8247C94.7166 17.7833 94.6067 15.7387 94.7574 13.701C94.8542 12.3909 95.3721 11.2169 96.1821 10.1778C96.73 9.47454 97.303 8.79281 97.9431 8.17082C98.1497 7.96972 98.2541 7.74208 98.2494 7.45033C98.2439 7.10086 98.278 6.75082 98.2695 6.40164C98.2593 5.96503 98.4024 5.60274 98.8122 5.43778C99.2392 5.26581 99.6572 5.35383 100.003 5.67736C100.341 5.99243 100.472 6.41476 100.576 6.84321C100.844 7.94407 100.636 8.98925 100.184 10.0024C100.032 10.3416 99.8938 10.6876 99.7242 11.0175C99.6132 11.2335 99.6991 11.3093 99.8912 11.3399C99.9906 11.3556 100.094 11.3486 100.195 11.3484C101.369 11.346 102.542 11.3422 103.716 11.3408C104.354 11.3399 104.79 11.6454 104.942 12.1933C105.112 12.8068 104.866 13.5101 104.351 13.7856C104.119 13.9094 104.126 13.9619 104.328 14.1041C104.757 14.4049 105.043 14.7865 104.955 15.3566C104.889 15.7865 104.676 16.0838 104.252 16.2193C104.172 16.2449 104.049 16.2374 104.034 16.3429C104.017 16.4522 104.146 16.4699 104.212 16.5198C104.776 16.9401 104.851 18.0605 104.024 18.4029C103.865 18.4688 103.794 18.5078 103.963 18.669C104.326 19.0179 104.33 19.4638 104.16 19.8914C103.995 20.3065 103.623 20.4335 103.193 20.4321C101.884 20.4274 100.575 20.4303 99.2663 20.4303C99.2663 20.4365 99.2663 20.4426 99.2663 20.4484Z" fill="#FDFDFE"/>
<path d="M93.118 21.6167C92.0358 21.6199 90.9535 21.6217 89.8713 21.6278C89.549 21.6295 89.3995 21.4494 89.3654 21.1553C89.3473 20.9994 89.3572 20.84 89.3572 20.6823C89.3578 18.4159 89.3578 16.1497 89.361 13.8836C89.3619 13.3243 89.5021 13.1885 90.0655 13.1873C91.0352 13.1856 92.0049 13.1841 92.9743 13.1882C93.3631 13.1899 93.5624 13.3593 93.5627 13.7297C93.5653 16.1083 93.5575 18.487 93.5525 20.8656C93.5525 20.8764 93.5461 20.8872 93.5429 20.898C93.482 20.9172 93.4893 20.9388 93.5403 20.9624C93.5592 21.2186 93.5517 21.4625 93.2564 21.5727C93.2477 21.5016 93.2232 21.4229 93.1398 21.4477C93.0442 21.4756 93.1311 21.5596 93.118 21.6167Z" fill="#FDFDFE"/>
<mask id="mask0_3105_46512" style="mask-type:luminance" maskUnits="userSpaceOnUse" x="1" y="47" width="106" height="69">
<path d="M106.448 47.4375H1.66211V115.248H106.448V47.4375Z" fill="white"/>
</mask>
<g mask="url(#mask0_3105_46512)">
<path d="M58.6216 57.9949C59.0358 60.0803 58.9215 62.2298 59.0809 64.3499C59.2404 66.47 59.7248 68.6715 61.1183 70.2771C62.2999 71.6386 64.0696 72.4957 64.9125 74.0892C65.5535 75.3005 65.5421 76.7919 65.0647 78.0764C64.5876 79.3609 63.6814 80.4524 62.6298 81.3309C59.0101 84.356 53.5898 84.8424 49.3044 82.8707C45.019 80.8986 41.938 76.6969 40.9251 72.0895C39.9123 67.482 40.8628 62.5519 43.1347 58.4178C44.418 56.0826 46.1834 53.9147 48.5638 52.7168C50.5315 51.7264 53.4895 51.3527 55.4782 52.5504C57.1829 53.5772 58.2573 56.1613 58.6216 57.9949Z" fill="#452828"/>
<path d="M92.7363 105.377C92.7363 105.377 91.9669 107.033 90.0088 106.045L88.7275 108.465L91.922 110.156L94.2417 105.774L93.3245 101.457C93.3245 101.457 92.4574 101.799 92.4813 102.726C92.5049 103.653 92.7363 105.377 92.7363 105.377Z" fill="#915046"/>
<path d="M95.6557 111.035C95.6709 110.028 95.1288 109.085 94.2252 108.607L90.8795 106.836L90.1885 108.141L95.6557 111.035Z" fill="#994F39"/>
<path d="M96.5937 112.538C96.6089 111.53 96.0667 110.587 95.1632 110.109L91.3229 108.076L90.6318 109.382L96.5937 112.538Z" fill="#AB6955"/>
<path d="M92.0955 97.3438L93.211 100.689L96.7368 100.661L93.9003 102.756L95.0157 106.101L92.1474 104.051L89.3106 106.145L90.3744 102.783L87.5059 100.733L91.0317 100.705L92.0955 97.3438Z" fill="#FAAF3B"/>
<path d="M89.9409 106.013L90.1038 104.841L91.4577 103.773C91.868 103.449 92.1085 102.956 92.1105 102.433L92.1111 102.301L87.9808 103.774L86.1807 105.905L85.0195 108.099L91.2621 111.403L91.6862 110.603C92.5232 109.021 91.9199 107.06 90.3384 106.223L89.9409 106.013Z" fill="#B57A68"/>
<path d="M95.6464 113.725C95.6616 112.718 95.1195 111.775 94.2159 111.297L90.3756 109.264L89.6846 110.569L95.6464 113.725Z" fill="#B57A68"/>
<path d="M89.8863 105.896C89.4946 106.5 88.9936 107.031 88.415 107.458" stroke="#A15545" stroke-width="0.543491" stroke-miterlimit="10" stroke-linecap="round" stroke-linejoin="round"/>
<path d="M67.5583 105.871L86.5675 106.179L86.4935 108.788L63.873 112.242L67.5583 105.871Z" fill="#B57A68"/>
<path d="M49.96 81.4551H55.5362C58.1673 81.4551 60.5068 83.1278 61.3582 85.6172L69.4609 109.313C69.4609 109.313 68.8972 113.698 65.4693 114.1C64.1816 114.251 62.9429 113.546 62.3384 112.399L49.96 88.9139V81.4551Z" fill="#383757"/>
<path d="M64.0884 105.479L82.4299 106.097L76.3911 113.723L64.8022 114.415C63.2697 114.507 62.0948 113.075 62.4845 111.59L63.2429 108.699L64.0884 105.479Z" fill="#383757"/>
<path d="M67.559 105.865C66.0594 106.772 64.3713 108.165 63.5928 109.735" stroke="#474463" stroke-width="0.543491" stroke-miterlimit="10" stroke-linecap="round"/>
<path d="M67.5587 105.865C65.6153 105.942 63.2185 106.202 61.7988 107.531" stroke="#474463" stroke-width="0.543491" stroke-miterlimit="10" stroke-linecap="round"/>
<path d="M35.7541 116.874L31.1534 85.1541L33.4632 81.4141H54.5386L60.3312 97.019C60.3312 97.019 55.4885 112.032 55.4885 117.601L60.8208 133.082L54.5252 135.504L49.6773 120.628L44.3502 135.398L27.7637 128.497L35.7541 116.874Z" fill="#474463"/>
<path d="M31.1533 85.1547L33.4926 81.3672H36.5095L37.3982 88.9161L34.4888 108.153L31.1533 85.1547Z" fill="#383757"/>
<path d="M53.5581 81.5195V99.3705L38.6055 81.5195H53.5581Z" fill="white"/>
<path d="M44.3925 85.8129C43.3421 85.5628 42.3208 85.2101 41.3336 84.7767L38.4775 81.3672H53.5578V83.9868C51.445 86.4797 47.4494 86.5404 44.3925 85.8129Z" fill="#B57A68"/>
<path d="M38.4775 81.3672V92.518H44.8722L41.3205 100.016L54.0186 99.9238L38.4775 81.3672Z" fill="#615F7F"/>
<path d="M53.5576 81.3672H54.5209L61.9955 92.518H56.0922L62.4633 100.016H54.0184H53.6445L53.5576 81.3672Z" fill="#615F7F"/>
<path d="M53.6267 99.998C52.1866 106.799 51.1312 113.685 49.6914 120.486" stroke="#383757" stroke-width="0.543491" stroke-miterlimit="10"/>
<path d="M37.3984 81.3613H31.8221C29.1911 81.3613 26.8515 83.034 26.0001 85.5234L17.8975 109.22C17.8975 109.22 17.9899 110.974 18.8042 112.473C20.098 114.854 23.3024 115.462 24.5772 113.071L37.3981 88.8204L37.3984 81.3613Z" fill="#474463"/>
<path d="M45.1537 106.83L46.6842 108.154L50.3464 108.993L50.3281 108.862C50.2558 108.344 49.9512 107.888 49.5012 107.622L48.5831 106.886L48.8474 105.871L50.3896 104.591L48.5207 102.975L44.5303 105.601L45.1537 106.83Z" fill="#915046"/>
<path d="M48.72 104.225L51.2706 106.659L54.3744 104.985L52.8472 108.164L55.398 110.598L51.9034 110.128L50.3764 113.306L49.7437 109.837L46.249 109.367L49.3525 107.693L48.72 104.225Z" fill="#FAAF3B"/>
<path d="M51.0197 105.517C51.0197 105.517 50.2333 104.289 48.79 105.281L47.5166 103.503L50.1211 101.684L52.4266 104.902L51.9104 107.858C51.9104 107.858 51.1879 107.68 51.1071 106.944C51.0267 106.207 51.0197 105.517 51.0197 105.517Z" fill="#915046"/>
<path d="M45.3171 107.105L43.7969 105.067L49.4498 100.697L49.9776 101.434C51.0196 102.889 50.9686 104.198 50.0715 104.905L48.8468 105.87L45.3171 107.105Z" fill="#B57A68"/>
<path d="M53.6235 102.582C53.7879 102.542 53.9243 102.708 53.8575 102.864C53.5894 103.489 53.0441 103.968 52.3615 104.136L48.9123 104.984L48.624 103.811L53.6235 102.582Z" fill="#B57A68"/>
<path d="M53.1544 97.7041C53.3171 97.5732 53.5561 97.6877 53.5628 97.8964C53.5893 98.7347 53.2302 99.5546 52.5552 100.098L49.1445 102.844L48.2109 101.685L53.1544 97.7041Z" fill="#B57A68"/>
<path d="M53.8788 100.107C54.0657 100.014 54.2746 100.177 54.2364 100.382C54.0828 101.207 53.5565 101.93 52.7806 102.316L49.3655 104.017L48.7021 102.684L53.8788 100.107Z" fill="#B57A68"/>
<path d="M23.8754 104.423L42.5833 104.314L36.7604 112.433L22.2625 114.615C20.3878 114.897 18.7979 113.253 19.1301 111.387C19.6629 108.394 20.9188 104.667 23.8754 104.423Z" fill="#474463"/>
<path d="M28.9552 104.41L22.8301 104.535" stroke="#383757" stroke-width="0.543491" stroke-miterlimit="10" stroke-linecap="round"/>
<path d="M28.9562 104.396L22.5645 106.099" stroke="#383757" stroke-width="0.543491" stroke-miterlimit="10" stroke-linecap="round"/>
<path d="M42.1562 66.4453L42.8161 82.9004C42.8426 83.5624 43.3871 84.0855 44.0496 84.0855H52.1499C53.1587 84.0855 53.646 82.8649 52.9249 82.1598C51.3717 80.6413 49.7972 78.035 49.7972 73.7089V66.7752L42.1562 66.4453Z" fill="#B57A68"/>
<path d="M45.8943 66.6074L49.7973 66.7762V73.7098C49.7973 75.6119 50.1028 77.1799 50.5761 78.4708C46.0905 76.945 44.5775 70.9354 45.8943 66.6074Z" fill="#915046"/>
<path d="M44.1553 72.6077C43.608 72.2381 43.072 71.7896 42.5596 71.2914C39.9589 68.7636 38.4071 65.3447 38.0425 61.7364C37.7035 58.3814 38.3768 55.0438 41.1614 52.8293C44.1428 50.4583 48.7913 50.251 52.149 51.896C55.3606 53.4694 57.1266 56.4618 57.7836 59.8885C58.1094 61.5884 58.2018 63.3252 58.2248 65.0527C58.2683 68.2882 57.7661 74.5034 54.047 75.2781C50.0312 76.105 47.1012 74.5969 44.1553 72.6077Z" fill="#B57A68"/>
<path d="M56.6134 58.4525C57.681 59.9783 57.9862 61.8932 58.263 63.7349C58.9285 61.3735 58.9296 58.8285 58.266 56.4667C57.9555 55.3615 57.4895 54.2764 56.7235 53.4215C55.9576 52.5667 54.8582 51.9636 53.7104 51.9829C51.9161 52.0129 49.7584 54.4851 51.611 55.9785C52.177 56.4347 53.1394 56.3411 53.8107 56.5209C54.9424 56.8244 55.9369 57.486 56.6134 58.4525Z" fill="#452828"/>
<path d="M52.3156 59.8113C51.1028 60.9116 49.6056 61.6397 48.0054 61.9778C46.366 62.324 44.3791 62.2281 43.1465 63.5406C39.4014 67.5284 42.5577 72.3189 44.4662 76.3411C45.4272 78.3662 46.4219 80.7177 45.9002 83.0001C45.2325 85.9206 42.3852 87.3082 39.5859 87.3199C35.031 87.3388 31.5005 83.955 30.5911 79.6037C30.1204 77.3507 30.4436 75.1026 31.318 72.9948C32.1227 71.0542 33.4189 69.341 34.0639 67.3305C35.096 64.1136 33.6343 60.723 34.678 57.4534C36.7521 50.9558 46.7417 44.5766 52.8321 49.8724C56.3456 52.9281 55.2028 57.1922 52.3156 59.8113Z" fill="#452828"/>
<path d="M43.3856 61.2437C42.5663 62.0219 42.0315 63.1161 41.9149 64.2391C41.7817 65.5241 42.1294 66.8069 42.7677 67.9389L43.601 67.7926C43.6888 66.3309 44.0575 64.873 44.518 63.5022C44.7293 62.8733 44.982 62.2478 45.2834 61.6465C45.0347 60.4932 44.1265 60.5398 43.3856 61.2437Z" fill="#452828"/>
<path d="M54.4053 64.5117C54.6466 65.5922 55.0864 66.6283 55.6962 67.5523C55.9095 67.8755 56.1555 68.2407 56.0649 68.6173C55.9798 68.9717 55.6294 69.1865 55.3103 69.3625" stroke="#915046" stroke-width="0.354536" stroke-miterlimit="10" stroke-linecap="round"/>
<path d="M53.1527 71.5348C53.2407 72.0364 53.7187 72.3716 54.2203 72.2836C54.7219 72.1955 55.0571 71.7175 54.9691 71.2159C54.8811 70.7143 54.4031 70.3791 53.9015 70.4672C53.4001 70.5552 53.0647 71.0332 53.1527 71.5348Z" fill="#FF7A7A"/>
<path d="M55.4634 70.8535C54.5045 71.4242 53.2708 71.5055 52.2451 71.066" stroke="#915046" stroke-width="0.354536" stroke-miterlimit="10" stroke-linecap="round"/>
<path d="M57.645 61.5524C56.8181 61.0899 55.9551 61.203 55.3086 61.8585" stroke="#452828" stroke-width="0.531366" stroke-miterlimit="10" stroke-linecap="round"/>
<path d="M51.1926 62.3878C50.0361 62.0185 48.8026 62.2211 47.8291 62.9404" stroke="#452828" stroke-width="0.531366" stroke-miterlimit="10" stroke-linecap="round"/>
<path d="M50.9862 64.9524C51.0649 65.4001 50.7656 65.8265 50.3179 65.9052C49.8702 65.9839 49.4435 65.6845 49.3651 65.2368C49.2864 64.7892 49.5857 64.3624 50.0334 64.284C50.4811 64.2053 50.9078 64.5047 50.9862 64.9524Z" fill="#452828"/>
<path d="M57.2532 64.5083C57.3272 64.0597 57.0235 63.6362 56.5749 63.5623C56.1264 63.4884 55.7029 63.7921 55.629 64.2406C55.555 64.6891 55.8587 65.1127 56.3073 65.1866C56.7558 65.2605 57.1793 64.9568 57.2532 64.5083Z" fill="#452828"/>
<path d="M42.578 65.9668C42.016 65.4891 41.209 65.2297 40.5246 65.5051C39.974 65.7266 39.589 66.2646 39.4558 66.8429C39.3226 67.4212 39.4159 68.033 39.6149 68.592C40.2489 70.3737 42.0245 71.6876 43.9137 71.7736C44.3046 71.7914 44.0901 68.6625 44.0321 68.3641C43.8584 67.4707 43.2679 66.5535 42.578 65.9668Z" fill="#B57A68"/>
<path d="M43.3645 70.9365C43.442 71.379 43.1465 71.8005 42.7041 71.8783C42.2616 71.9558 41.8402 71.6603 41.7624 71.2178C41.6848 70.7754 41.9804 70.3539 42.4228 70.2761C42.8652 70.1983 43.2867 70.4941 43.3645 70.9365Z" fill="white"/>
<path d="M40.666 66.7703C40.9887 66.4972 41.4734 66.4643 41.8619 66.6307C42.2504 66.7971 42.546 67.1373 42.7275 67.5191C42.9088 67.9009 42.9861 68.3235 43.0307 68.7438C42.8231 68.5477 42.4737 68.5249 42.2425 68.6928C42.0114 68.8607 41.9248 69.2 42.0473 69.4579C42.1697 69.7158 42.4871 69.8636 42.7634 69.791" stroke="#915046" stroke-width="0.354536" stroke-miterlimit="10" stroke-linecap="round"/>
</g>
</svg>
